<?xml version="1.0" standalone="no"?>
<!DOCTYPE svg PUBLIC "-//W3C//DTD SVG 20010904//EN"
 "http://www.w3.org/TR/2001/REC-SVG-20010904/DTD/svg10.dtd">
<svg version="1.0" xmlns="http://www.w3.org/2000/svg"
 width="600.000000pt" height="483.000000pt" viewBox="0 0 600.000000 483.000000"
 preserveAspectRatio="xMidYMid meet">
<g transform="translate(0.000000,483.000000) scale(0.100000,-0.100000)"
fill="#000000" stroke="none">
<path d="M4923 4355 c-42 -18 -118 -97 -143 -150 -43 -89 -17 -146 93 -202
l38 -19 -33 -33 c-60 -58 -275 -197 -490 -315 -66 -36 -85 -52 -75 -63 9 -8
228 63 310 101 90 41 218 137 291 218 l56 61 44 -31 c24 -17 46 -28 50 -25 11
11 46 94 46 108 0 8 -18 28 -40 47 l-40 33 11 60 c16 89 8 169 -21 200 -26 28
-50 31 -97 10z m20 -130 c16 -15 33 -92 23 -102 -8 -8 -82 26 -101 47 -19 21
-12 44 18 58 31 15 43 14 60 -3z"/>
<path d="M3188 3651 c-56 -11 -81 -33 -126 -109 -46 -76 -54 -109 -24 -97 57
22 356 5 384 -23 11 -11 -45 -46 -224 -141 -64 -34 -127 -70 -140 -81 l-23
-19 25 -1 c37 0 257 55 310 78 54 23 132 103 195 200 54 85 64 121 38 143 -50
45 -293 73 -415 50z"/>
<path d="M4946 3485 c-101 -26 -192 -82 -299 -184 -140 -135 -285 -333 -385
-528 -20 -40 -42 -73 -47 -73 -6 0 -34 24 -62 53 -56 57 -105 143 -129 223
-21 74 -47 104 -90 104 -47 0 -111 -61 -222 -210 -112 -150 -218 -256 -312
-310 -41 -24 -139 -70 -218 -101 -180 -73 -230 -101 -267 -147 -38 -47 -99
-221 -83 -239 7 -9 39 -13 102 -13 88 0 356 -35 501 -65 172 -35 310 -66 314
-71 2 -2 2 -6 0 -8 -13 -13 -566 -216 -626 -230 -40 -9 -105 -16 -146 -16
-188 0 -277 86 -277 266 0 59 -3 75 -17 83 -29 16 -63 -11 -152 -118 -106
-128 -161 -177 -247 -221 -62 -31 -79 -34 -171 -38 -90 -4 -107 -2 -149 18
-86 42 -153 125 -194 242 -10 29 -37 132 -59 228 l-41 174 33 31 c54 49 142
155 186 224 45 71 77 159 62 174 -6 6 -63 -42 -151 -127 -77 -75 -144 -136
-149 -136 -4 0 -20 51 -35 113 -33 136 -53 181 -83 185 -27 4 -40 -20 -77
-136 -30 -97 -32 -139 -9 -229 l16 -67 -24 -15 c-58 -38 -186 -160 -230 -220
-64 -87 -114 -183 -194 -377 -88 -211 -128 -285 -180 -333 -59 -54 -101 -61
-159 -27 -103 60 -176 259 -176 476 1 72 33 331 44 349 4 6 18 11 32 11 58 0
110 67 138 176 33 129 11 164 -43 69 -38 -68 -73 -76 -121 -29 -22 21 -25 35
-28 108 -5 97 9 159 69 314 62 160 65 221 6 128 -101 -160 -177 -391 -177
-539 0 -68 27 -161 54 -186 l22 -21 -24 -73 c-62 -185 -80 -455 -42 -637 35
-165 125 -318 224 -380 48 -29 114 -41 163 -28 104 26 178 141 298 464 67 177
140 307 229 402 53 57 166 155 172 149 4 -3 19 -61 34 -129 57 -255 93 -354
171 -469 73 -108 176 -166 311 -176 156 -11 273 33 386 146 37 36 85 94 106
129 21 35 40 61 43 59 2 -3 11 -31 20 -63 19 -74 44 -122 80 -156 104 -97 310
-111 532 -34 119 42 145 52 409 165 448 191 559 220 876 230 l189 6 43 103
c25 56 45 113 47 125 2 25 12 23 -273 52 -195 20 -391 52 -685 110 -203 41
-395 83 -402 89 -2 2 18 18 45 36 67 48 158 145 268 288 96 123 137 163 154
146 5 -5 22 -43 38 -85 43 -106 78 -162 143 -221 l57 -52 -26 -72 c-42 -117
-2 -120 73 -6 20 30 33 41 44 37 111 -44 313 -65 456 -46 164 21 376 87 488
150 21 12 54 30 75 42 67 38 156 106 215 164 133 134 179 350 105 504 -30 64
-159 190 -238 234 -118 65 -250 88 -354 62z m122 -284 c33 -10 91 -35 128 -56
72 -41 191 -151 217 -202 16 -31 16 -31 -16 -55 -97 -74 -285 -164 -451 -217
-137 -44 -234 -61 -348 -61 -93 0 -244 22 -259 37 -9 9 101 177 182 278 89
111 202 211 283 249 106 51 168 57 264 27z"/>
<path d="M1357 3323 c-13 -21 -34 -57 -46 -80 -12 -24 -24 -43 -27 -43 -3 0
-49 27 -102 60 -114 72 -138 80 -157 54 -29 -40 -105 -192 -105 -212 0 -14 26
-37 93 -80 51 -33 109 -68 129 -78 47 -22 58 -14 104 78 19 37 36 68 39 68 3
0 55 -31 117 -70 62 -38 120 -70 129 -70 20 0 135 220 126 243 -3 9 -25 28
-49 43 -119 76 -203 124 -215 124 -7 0 -23 -17 -36 -37z"/>
<path d="M2879 2850 c-13 -8 -476 -201 -738 -308 -56 -23 -66 -32 -82 -67 -28
-65 -32 -85 -17 -85 19 0 810 331 829 347 9 7 21 32 28 54 7 23 15 47 18 55 6
16 -14 18 -38 4z"/>
<path d="M5184 1817 c-34 -17 -72 -49 -120 -103 -38 -43 -83 -93 -100 -112
l-31 -35 -31 23 c-65 48 -133 11 -297 -166 -129 -138 -219 -212 -353 -290
-148 -87 -161 -107 -51 -79 158 41 300 135 450 299 58 64 128 116 156 116 10
0 28 -8 41 -18 20 -16 22 -22 13 -46 -19 -48 -11 -52 23 -12 27 32 38 38 58
33 39 -10 148 11 214 42 115 54 191 146 201 245 5 48 3 56 -23 85 -40 44 -84
49 -150 18z m65 -112 c45 -23 45 -40 0 -69 -53 -36 -127 -64 -189 -72 l-52 -7
17 26 c21 33 115 114 147 126 33 14 45 13 77 -4z"/>
<path d="M1367 1458 c-82 -165 -110 -331 -71 -428 29 -73 111 -90 153 -32 37
53 66 172 41 172 -5 0 -22 -18 -36 -40 -31 -46 -54 -50 -83 -14 -43 55 -32
156 37 340 28 75 31 94 12 94 -4 0 -28 -42 -53 -92z"/>
<path d="M2443 1098 c-15 -20 -123 -217 -123 -226 0 -7 154 -112 227 -153 42
-24 42 -24 57 -4 32 44 117 217 113 229 -8 19 -233 166 -254 166 -6 0 -15 -6
-20 -12z"/>
</g>
</svg>
